<svg width="48" height="64" viewBox="0 0 48 64" fill="none" xmlns="http://www.w3.org/2000/svg">
<g id="Delete  icon">
<g id="Group 14">
<g id="Group 12">
<path id="Rectangle 2393" d="M3.86807 20.701C3.77497 19.5373 4.69425 18.5415 5.8617 18.5415H42.4413C43.6088 18.5415 44.528 19.5373 44.4349 20.701L41.1183 62.1592C41.0351 63.1986 40.1674 63.9997 39.1247 63.9997H9.17836C8.13564 63.9997 7.26788 63.1986 7.18473 62.1592L3.86807 20.701Z" fill="#FEECEE"/>
<g id="Group 11">
<path id="Rectangle 2394" d="M23.4979 24.9127C23.4979 24.578 23.7693 24.3066 24.104 24.3066C24.4388 24.3066 24.7101 24.578 24.7101 24.9128V57.6427C24.7101 57.9774 24.4388 58.2488 24.104 58.2488C23.7693 58.2488 23.4979 57.9774 23.4979 57.6427V24.9127Z" fill="#AC0C22"/>
<path id="Rectangle 2395" d="M33.9763 24.9109C33.9965 24.5744 34.2873 24.319 34.6236 24.3425C34.9552 24.3657 35.2062 24.6516 35.1863 24.9834L33.2294 57.6446C33.2092 57.9811 32.9184 58.2364 32.5821 58.2129C32.2505 58.1897 31.9995 57.9039 32.0194 57.5721L33.9763 24.9109Z" fill="#AC0C22"/>
<path id="Rectangle 2396" d="M13.0219 24.9831C13.002 24.6513 13.253 24.3654 13.5846 24.3423C13.9209 24.3187 14.2117 24.5741 14.2319 24.9106L16.1888 57.5718C16.2087 57.9036 15.9576 58.1895 15.6261 58.2127C15.2898 58.2362 14.999 57.9808 14.9788 57.6443L13.0219 24.9831Z" fill="#AC0C22"/>
</g>
</g>
<g id="Group 13">
<path id="Rectangle 2398" d="M14.0721 4.68025C13.9787 3.34453 14.9858 2.186 16.3215 2.0926L30.8327 1.07788C32.1684 0.984474 33.3269 1.99157 33.4203 3.32729L33.5895 5.74582L14.2412 7.09878L14.0721 4.68025Z" fill="#AC0C22"/>
<rect id="Rectangle 2397" x="1.24158" y="8.00806" width="45.4582" height="7.27331" rx="2" transform="rotate(-4 1.24158 8.00806)" fill="#AC0C22"/>
</g>
</g>
</g>
</svg>
