<svg width="16" height="16" viewBox="0 0 16 16" fill="none" xmlns="http://www.w3.org/2000/svg">
<path d="M9.23969 7.99231L10.6596 9.61528L12.5689 10.8354L12.9018 8.00229L12.5689 5.23242L10.623 6.30442L9.23969 7.99231Z" fill="#00832D"/>
<path d="M1 10.5726V12.9863C1 13.5381 1.44694 13.985 1.99875 13.985H4.4124L4.91178 12.1606L4.4124 10.5726L2.75614 10.0732L1 10.5726Z" fill="#0066DA"/>
<path d="M4.4124 2L1 5.4124L2.75614 5.91178L4.4124 5.4124L4.90345 3.84603L4.4124 2Z" fill="#E94235"/>
<path d="M4.4124 5.4126H1V10.5728H4.4124V5.4126Z" fill="#2684FC"/>
<path d="M14.7495 3.44476L12.5689 5.23252V10.8355L14.7595 12.6316C15.0874 12.888 15.5668 12.6541 15.5668 12.2371V3.83094C15.5668 3.40897 15.0766 3.17759 14.7495 3.44476ZM9.23971 7.99241V10.5725H4.41241V13.9849H11.5701C12.1219 13.9849 12.5689 13.538 12.5689 12.9862V10.8355L9.23971 7.99241Z" fill="#00AC47"/>
<path d="M11.5701 2H4.41241V5.4124H9.23971V7.99251L12.5689 5.23429V2.99875C12.5689 2.44694 12.1219 2 11.5701 2Z" fill="#FFBA00"/>
</svg>
