<svg width="72" height="72" viewBox="0 0 72 72" fill="none" xmlns="http://www.w3.org/2000/svg">
<rect width="72" height="72" rx="18" fill="url(#paint0_radial_5201_15)"/>
<path d="M39.3462 54.2936L29.4061 44.3534L27.0543 42.0016L25.6746 40.6219L20.2498 35.1972V57.9938H39.3462C40.4751 57.9938 41.5726 57.837 42.6074 57.5548L39.3462 54.2936Z" fill="white"/>
<path d="M29.4061 36.8591L20.2498 27.7028V14.0625H21.849L28.2772 20.4907L36.9945 29.2393L29.4061 36.8591Z" fill="white"/>
<path d="M52.0146 44.228L40.7574 32.9708L39.3463 34.3819L34.9877 38.7405L33.1376 40.5906L39.315 46.7679L47.4992 54.9521C50.2586 52.6317 52.0146 49.1197 52.0146 45.2314C52.0459 44.9179 52.0459 44.5729 52.0146 44.228Z" fill="white"/>
<path d="M51.2932 22.4348C50.6661 20.7102 49.6627 19.1423 48.377 17.8567C46.088 15.5049 42.8582 14.0625 39.3148 14.0625H29.3433L31.8205 16.5397L49.6 34.3192C51.1678 32.2182 52.0772 29.6156 52.0772 26.7935C52.0458 25.257 51.795 23.7832 51.2932 22.4348Z" fill="white"/>
<defs>
<radialGradient id="paint0_radial_5201_15" cx="0" cy="0" r="1" gradientUnits="userSpaceOnUse" gradientTransform="translate(36 72) rotate(-90) scale(72)">
<stop stop-color="#2E6B38"/>
<stop offset="1" stop-color="#4C9959"/>
</radialGradient>
</defs>
</svg>
