<svg width="18" height="18" viewBox="0 0 18 18" fill="none" xmlns="http://www.w3.org/2000/svg">
<path fill-rule="evenodd" clip-rule="evenodd" d="M18 9C18 16.5 16.5205 18 9 18C1.47945 18 0 16.5 0 9C0 1.5 1.47945 0 9 0C16.5205 0 18 1.5 18 9ZM12.7435 3.81842C13.106 4.18336 13.389 4.6284 13.5659 5.11796C13.7074 5.50069 13.7781 5.91904 13.7869 6.35519C13.7869 7.15627 13.5305 7.89505 13.0884 8.49141L8.07455 3.44458L7.37598 2.74141H10.188C11.1872 2.74141 12.098 3.15086 12.7435 3.81842ZM7.47202 9.24141L4.91023 6.63068V2.74141H5.35766L7.15619 4.57429L9.59516 7.06878L7.47202 9.24141ZM10.5492 7.99141L13.7802 11.1922C13.7892 11.2903 13.7892 11.3883 13.7802 11.4775C13.7802 12.5831 13.2762 13.5816 12.4842 14.2414L10.1353 11.9144L8.36228 10.158L8.89327 9.63193L10.1442 8.39262L10.5492 7.99141ZM10.1755 14.1864L7.43477 11.3521L6.78634 10.6816L6.40593 10.2882L4.91023 8.74141V15.2414H10.1755C10.4867 15.2414 10.7893 15.1967 11.0746 15.1162L10.1755 14.1864Z" fill="white"/>
</svg>
