<svg width="64" height="64" viewBox="0 0 64 64" fill="none" xmlns="http://www.w3.org/2000/svg">
<path d="M37.4699 58.6653H26.5304C16.2164 58.6653 11.0596 58.6653 7.85537 55.4613C4.65137 52.2573 4.65137 47.1 4.65137 36.7862V31.3165C4.65137 21.0025 4.65137 15.8457 7.85537 12.6415C11.0596 9.4375 16.2164 9.4375 26.5304 9.4375H37.4699C47.7836 9.4375 52.9409 9.4375 56.1446 12.6415C59.3489 15.8457 59.3489 21.0025 59.3489 31.3165V36.7862C59.3489 47.1 59.3489 52.2573 56.1449 55.4613C54.3584 57.2475 51.9651 58.038 48.4094 58.3877" stroke="#C0D8C4" stroke-width="4" stroke-linecap="round"/>
<path d="M18.3254 9.43648V5.33398" stroke="#C0D8C4" stroke-width="4" stroke-linecap="round"/>
<path d="M45.6746 9.43648V5.33398" stroke="#C0D8C4" stroke-width="4" stroke-linecap="round"/>
<path d="M57.9816 23.1113H28.5816M4.65137 23.1113H15.2489" stroke="#C0D8C4" stroke-width="4" stroke-linecap="round"/>
<path d="M46.4092 44.9909C46.4092 45.3968 46.0804 45.7256 45.6745 45.7256C45.2683 45.7256 44.9395 45.3966 44.9395 44.9909C44.9395 44.5849 45.2685 44.2559 45.6745 44.2559C46.0801 44.2559 46.4092 44.5847 46.4092 44.9909Z" fill="#C0D8C4" stroke="#C0D8C4" stroke-width="4"/>
<path d="M46.4092 34.0514C46.4092 34.4573 46.0804 34.7862 45.6745 34.7862C45.2683 34.7862 44.9395 34.4571 44.9395 34.0514C44.9395 33.6455 45.2685 33.3164 45.6745 33.3164C46.0801 33.3164 46.4092 33.6452 46.4092 34.0514Z" fill="#C0D8C4" stroke="#C0D8C4" stroke-width="4"/>
<path d="M32.7349 44.9909C32.7349 45.3966 32.4061 45.7256 31.9999 45.7256C31.594 45.7256 31.2651 45.3968 31.2651 44.9909C31.2651 44.5847 31.5942 44.2559 31.9999 44.2559C32.4058 44.2559 32.7349 44.5849 32.7349 44.9909Z" fill="#C0D8C4" stroke="#C0D8C4" stroke-width="4"/>
<path d="M32.7349 34.0514C32.7349 34.4571 32.4061 34.7862 31.9999 34.7862C31.594 34.7862 31.2651 34.4573 31.2651 34.0514C31.2651 33.6452 31.5942 33.3164 31.9999 33.3164C32.4058 33.3164 32.7349 33.6455 32.7349 34.0514Z" fill="#C0D8C4" stroke="#C0D8C4" stroke-width="4"/>
<path d="M19.0606 44.9909C19.0606 45.3966 18.7317 45.7256 18.3256 45.7256C17.9196 45.7256 17.5908 45.3968 17.5908 44.9909C17.5908 44.5848 17.92 44.2559 18.3256 44.2559C18.7314 44.2559 19.0606 44.585 19.0606 44.9909Z" fill="#C0D8C4" stroke="#C0D8C4" stroke-width="4"/>
<path d="M19.0606 34.0514C19.0606 34.4571 18.7317 34.7862 18.3256 34.7862C17.9196 34.7862 17.5908 34.4573 17.5908 34.0514C17.5908 33.6454 17.92 33.3164 18.3256 33.3164C18.7314 33.3164 19.0606 33.6456 19.0606 34.0514Z" fill="#C0D8C4" stroke="#C0D8C4" stroke-width="4"/>
</svg>
