<svg width="96" height="96" viewBox="0 0 96 96" fill="none" xmlns="http://www.w3.org/2000/svg">
<path d="M85.0005 62C85.0005 76.9116 69.0006 74.4999 50.0006 89C31.0006 103.5 21.5006 77.5 15.0006 62C8.50057 46.4999 35.5006 21.9999 50.0006 35C64.5006 48.0001 85.0005 47.0883 85.0005 62Z" fill="url(#paint0_linear_5761_11628)"/>
<path d="M27 69H55C57.2091 69 59 67.2091 59 65V69C59 71.2091 57.2091 73 55 73H27C24.7909 73 23 71.2091 23 69V65V60V27C23 24.7909 24.7909 23 27 23H49L54 28L59 33H53C50.7909 33 49 31.2091 49 29V23H27C24.7909 23 23 24.7909 23 27V60V65C23 67.2091 24.7909 69 27 69Z" fill="#C0D8C4"/>
<path d="M59 33L54 28L49 23M59 33H53C50.7909 33 49 31.2091 49 29V23M59 33V42M49 23H27C24.7909 23 23 24.7909 23 27V60M59 60V65C59 67.2091 57.2091 69 55 69H27C24.7909 69 23 67.2091 23 65V60M59 60V69C59 71.2091 57.2091 73 55 73H27C24.7909 73 23 71.2091 23 69V60M59 60V54" stroke="#2E6B38" stroke-width="3"/>
<path d="M48.3356 41.4794L41.8408 47.2526C41.3933 47.6504 41.3933 48.3496 41.8408 48.7474L48.3356 54.5206C48.9805 55.0938 50 54.636 50 53.7732V52C50 51.4477 50.4477 51 51 51H72C72.5523 51 73 50.5523 73 50V46C73 45.4477 72.5523 45 72 45H51C50.4477 45 50 44.5523 50 44V42.2268C50 41.364 48.9805 40.9062 48.3356 41.4794Z" fill="#C0D8C4" stroke="#2E6B38" stroke-width="2"/>
<path d="M28 28V36L36 28H28Z" fill="#2E6B38" stroke="#2E6B38" stroke-width="2"/>
<defs>
<linearGradient id="paint0_linear_5761_11628" x1="85.0005" y1="93.2509" x2="23.651" y2="22.9161" gradientUnits="userSpaceOnUse">
<stop stop-color="#CFE3D2" stop-opacity="0"/>
<stop offset="0.497149" stop-color="#CFE3D2"/>
<stop offset="1" stop-color="#CFE3D2" stop-opacity="0"/>
</linearGradient>
</defs>
</svg>
