<svg width="20" height="20" viewBox="0 0 20 20" fill="none" xmlns="http://www.w3.org/2000/svg">
<circle cx="10" cy="10" r="10" fill="#FFE01B"/>
<path d="M9.26014 4.00001C7.03334 3.99259 2.74939 9.06956 4.34984 10.4144L4.74286 10.7454C4.63678 11.0283 4.59928 11.332 4.63341 11.632C4.6752 12.0477 4.89112 12.4455 5.24036 12.7532C5.57169 13.0451 6.0075 13.2302 6.43037 13.2302C7.12985 14.8333 8.72881 15.8169 10.6024 15.8723C12.6123 15.9317 14.3003 14.9936 15.0072 13.3084C15.0535 13.1896 15.25 12.6572 15.25 12.1867C15.25 11.7137 14.9814 11.5178 14.8097 11.5178C14.8047 11.4994 14.7709 11.3762 14.7241 11.2278C14.6779 11.0794 14.6296 10.9755 14.6296 10.9755C14.8162 10.6969 14.8197 10.4485 14.7948 10.3075C14.7684 10.1329 14.6953 9.98442 14.548 9.83054C14.4008 9.67666 14.0993 9.51883 13.6759 9.40107L13.454 9.33971C13.453 9.33031 13.4421 8.81871 13.4326 8.59902C13.4257 8.44069 13.4117 8.19231 13.3346 7.94838C13.2421 7.61787 13.0819 7.32842 12.8814 7.14337C13.4346 6.57338 13.7799 5.945 13.7789 5.40618C13.7774 4.36961 12.4973 4.05592 10.9203 4.70557L10.586 4.84658C10.3819 4.64726 10.1776 4.44819 9.97305 4.24938C9.77604 4.07868 9.53376 4.001 9.26014 4.00001ZM9.29645 4.43195C9.37904 4.43195 9.45665 4.44136 9.52779 4.46065C9.67555 4.50221 10.1646 5.06627 10.1646 5.06627C10.1646 5.06627 9.25615 5.56748 8.41339 6.26661C7.2791 7.13595 6.42092 8.39962 5.9075 9.77067C5.50403 9.84885 5.14832 10.0764 4.93091 10.3906C4.80107 10.2828 4.55879 10.074 4.516 9.99283C4.16875 9.33674 4.8946 8.06218 5.40204 7.34227C6.55723 5.70206 8.31638 4.42899 9.29645 4.43195ZM10.9312 6.05138C10.9511 6.05039 10.9611 6.07612 10.9452 6.088C10.874 6.14242 10.7964 6.21664 10.7397 6.29284C10.7375 6.29574 10.7362 6.29919 10.7358 6.30281C10.7354 6.30643 10.7361 6.31007 10.7377 6.31334C10.7393 6.31662 10.7418 6.31939 10.7448 6.32135C10.7479 6.32332 10.7515 6.32441 10.7551 6.3245C11.083 6.32648 11.5446 6.44078 11.8456 6.60851C11.866 6.61989 11.8516 6.65947 11.8287 6.65403C11.3735 6.55012 10.6278 6.47145 9.85365 6.65898C9.16213 6.8272 8.63478 7.08597 8.24972 7.36454C8.22982 7.37839 8.20693 7.35316 8.22236 7.33485C8.66811 6.82275 9.21685 6.37744 9.70838 6.12758C9.7253 6.11867 9.7432 6.13698 9.73425 6.15331C9.69495 6.22406 9.61983 6.37448 9.59595 6.48877C9.59246 6.50609 9.61187 6.51994 9.62679 6.50955C9.93275 6.30174 10.4646 6.08008 10.9312 6.05138ZM12.4352 7.63716L12.463 7.63766C12.5438 7.64082 12.6222 7.6658 12.6899 7.7099C12.9555 7.88554 12.9934 8.31155 13.0073 8.62277C13.0147 8.80089 13.0366 9.23086 13.0441 9.35406C13.061 9.63658 13.1356 9.67617 13.2864 9.72564C13.371 9.75385 13.4506 9.77413 13.5665 9.80679C13.9177 9.90476 14.1262 10.0047 14.258 10.1324C14.3361 10.2125 14.3724 10.2971 14.3839 10.3783C14.4251 10.6791 14.149 11.0512 13.4177 11.3881C12.6182 11.7572 11.6481 11.8507 10.978 11.7765L10.7437 11.7503C10.2074 11.6786 9.90141 12.3673 10.2233 12.8393C10.4307 13.1436 10.9954 13.3415 11.5606 13.3415C12.856 13.3415 13.8515 12.7918 14.2222 12.3163C14.2329 12.3028 14.2428 12.2888 14.252 12.2743C14.2699 12.2471 14.255 12.2322 14.2321 12.2476C13.9296 12.4534 12.5854 13.2713 11.1476 13.0249C11.1476 13.0249 10.973 12.9967 10.8133 12.9348C10.6865 12.8853 10.4213 12.7646 10.389 12.494C11.5496 12.8502 12.2799 12.5133 12.2799 12.5133C12.2867 12.5102 12.2924 12.5051 12.2961 12.4988C12.2998 12.4924 12.3015 12.485 12.3008 12.4776C12.3004 12.4733 12.2991 12.469 12.297 12.4652C12.2949 12.4613 12.2921 12.4579 12.2887 12.4551C12.2852 12.4524 12.2813 12.4503 12.2771 12.4491C12.2728 12.4479 12.2684 12.4475 12.264 12.4479C12.264 12.4479 11.3133 12.588 10.4143 12.2609C10.5123 11.9443 10.7725 12.059 11.1655 12.0902C11.777 12.1263 12.3903 12.0604 12.9799 11.8953C13.3869 11.7795 13.9212 11.5504 14.3366 11.2243C14.4764 11.5301 14.5256 11.8671 14.5256 11.8671C14.5256 11.8671 14.6346 11.8473 14.7246 11.9032C14.8107 11.9556 14.8734 12.0645 14.8306 12.346C14.7431 12.872 14.5182 13.299 14.1406 13.6918C13.9045 13.9457 13.6236 14.1543 13.3118 14.3073C13.1426 14.3964 12.9615 14.4726 12.771 14.5349C11.3466 14.9976 9.88847 14.4889 9.41834 13.3969C9.38026 13.3134 9.34882 13.2271 9.32431 13.1387C9.12382 12.4188 9.29446 11.5554 9.82579 11.0116C9.85813 10.977 9.89146 10.9359 9.89146 10.8849C9.89146 10.8419 9.8641 10.7964 9.84071 10.7647C9.65465 10.496 9.01039 10.0393 9.13974 9.15466C9.23277 8.51936 9.79146 8.07158 10.3123 8.0983C10.3566 8.10028 10.4004 8.10325 10.4447 8.10572C10.67 8.11908 10.8675 8.14778 11.0531 8.1552C11.3641 8.16905 11.6436 8.12403 11.975 7.84943C12.0869 7.7569 12.1765 7.67625 12.3282 7.65102C12.3421 7.64854 12.374 7.63716 12.4352 7.63716ZM12.4461 8.71579C12.4361 8.7159 12.4261 8.71673 12.4163 8.71827C12.2496 8.74498 12.2436 8.94982 12.3028 9.23284C12.3367 9.39117 12.3959 9.52724 12.462 9.61135C12.5491 9.60145 12.6327 9.60046 12.7098 9.61135C12.7541 9.50992 12.7615 9.33576 12.7217 9.14526C12.666 8.88055 12.5919 8.71381 12.4461 8.71579ZM10.6253 9.48073C10.4439 9.47998 10.2669 9.53645 10.1198 9.64203C10.0402 9.69992 9.96509 9.78057 9.97554 9.82905C9.97952 9.84489 9.99096 9.85676 10.0193 9.86023C10.0845 9.86765 10.3138 9.75286 10.5775 9.73653C10.7636 9.72515 10.9178 9.78304 11.0367 9.83549C11.1556 9.88694 11.2287 9.92108 11.2571 9.8914C11.2755 9.8726 11.27 9.83697 11.2417 9.79046C11.183 9.69546 11.0626 9.59898 10.9342 9.54455C10.8365 9.503 10.7315 9.4813 10.6253 9.48073ZM12.6561 9.8815C12.571 9.88002 12.5003 9.97353 12.4983 10.0893C12.4964 10.2061 12.5635 10.3021 12.6491 10.3031C12.7347 10.3045 12.8053 10.2115 12.8073 10.0952C12.8093 9.97848 12.7416 9.88299 12.6561 9.8815ZM10.875 9.9666C10.8501 9.9666 10.8243 9.96759 10.7979 9.97056C10.6432 9.9953 10.5576 10.0458 10.5029 10.0928C10.4561 10.1333 10.4273 10.1784 10.4273 10.21C10.4272 10.215 10.4281 10.2198 10.43 10.2244C10.4318 10.229 10.4345 10.2331 10.438 10.2366C10.4415 10.2401 10.4456 10.2429 10.4502 10.2448C10.4547 10.2467 10.4596 10.2476 10.4646 10.2476C10.4994 10.2476 10.578 10.2165 10.578 10.2165C10.7368 10.1569 10.9083 10.1392 11.076 10.165C11.1541 10.1739 11.1904 10.1784 11.2078 10.1521C11.2128 10.1442 11.2188 10.1279 11.2029 10.1027C11.1715 10.0517 11.0486 9.96957 10.875 9.9666ZM11.9994 10.1645C11.9362 10.1645 11.8824 10.1898 11.8586 10.2377C11.8212 10.3139 11.876 10.4174 11.9809 10.4683C12.0854 10.5198 12.2013 10.4995 12.2396 10.4238C12.277 10.3471 12.2222 10.2437 12.1173 10.1927C12.0807 10.1744 12.0403 10.165 11.9994 10.1645ZM6.21098 10.1764C6.23485 10.1764 6.25973 10.1764 6.2851 10.1779C6.64828 10.1977 7.18358 10.4747 7.30597 11.2615C7.41392 11.9591 7.24229 12.6681 6.58509 12.7799C6.5239 12.7898 6.46171 12.7943 6.39903 12.7928C5.79208 12.7765 5.13588 12.2327 5.07071 11.588C4.99857 10.8755 5.36473 10.3273 6.01297 10.1972C6.07118 10.1853 6.13834 10.1774 6.21098 10.1764ZM6.17615 10.6351C6.09719 10.6344 6.01896 10.65 5.94641 10.681C5.87387 10.712 5.8086 10.7577 5.75477 10.8152C5.56572 11.022 5.53637 11.304 5.57269 11.404C5.58612 11.4401 5.60751 11.4505 5.62244 11.4524C5.65428 11.4564 5.70204 11.4331 5.73189 11.3535C5.7349 11.345 5.73772 11.3364 5.74034 11.3278C5.75844 11.2637 5.78468 11.2022 5.81845 11.1447C5.84311 11.1072 5.87497 11.0748 5.91221 11.0496C5.94945 11.0243 5.99134 11.0066 6.03547 10.9974C6.0796 10.9883 6.12511 10.9879 6.1694 10.9963C6.21369 11.0046 6.25588 11.0216 6.29356 11.0462C6.42589 11.1323 6.47714 11.2936 6.42042 11.447C6.39157 11.5267 6.34381 11.6791 6.35425 11.8037C6.37565 12.0566 6.53186 12.1585 6.67265 12.1689C6.80897 12.1738 6.90449 12.0981 6.92886 12.0422C6.94329 12.0091 6.93135 11.9893 6.92339 11.9804C6.902 11.9542 6.86717 11.9621 6.83384 11.97C6.80788 11.977 6.78113 11.9806 6.75424 11.9809C6.72567 11.9817 6.69735 11.9754 6.67182 11.9626C6.6463 11.9498 6.62436 11.9309 6.60798 11.9076C6.56917 11.8483 6.57166 11.7592 6.61445 11.6583C6.61992 11.6444 6.62688 11.6296 6.63435 11.6127C6.703 11.4604 6.81742 11.2046 6.68907 10.9611C6.59206 10.778 6.43385 10.6633 6.24431 10.6395C6.22154 10.6365 6.19862 10.6348 6.17565 10.6346L6.17615 10.6351Z" fill="black"/>
</svg>
