<svg width="18" height="16" viewBox="0 0 18 16" fill="none" xmlns="http://www.w3.org/2000/svg">
<path d="M12.4002 6H16.9922C17.426 6 17.7777 6.34026 17.7777 6.76V10.8068C17.7777 12.3494 16.4852 13.6 14.8907 13.6H14.8771C13.2826 13.6002 11.9899 12.3498 11.9896 10.8072V6.3972C11.9896 6.17783 12.1734 6 12.4002 6Z" fill="#5059C9"/>
<path d="M15.5039 5.2001C16.5314 5.2001 17.3644 4.39421 17.3644 3.4001C17.3644 2.40598 16.5314 1.6001 15.5039 1.6001C14.4764 1.6001 13.6434 2.40598 13.6434 3.4001C13.6434 4.39421 14.4764 5.2001 15.5039 5.2001Z" fill="#5059C9"/>
<path d="M9.71578 5.2C11.2 5.2 12.4031 4.03594 12.4031 2.6C12.4031 1.16406 11.2 0 9.71578 0C8.23161 0 7.02844 1.16406 7.02844 2.6C7.02844 4.03594 8.23161 5.2 9.71578 5.2Z" fill="#7B83EB"/>
<path d="M13.299 6H5.71907C5.29041 6.01026 4.9513 6.35445 4.96125 6.7692V11.3848C4.90139 13.8737 6.93663 15.9391 9.50905 16C12.0815 15.9391 14.1167 13.8737 14.0569 11.3848V6.7692C14.0668 6.35445 13.7277 6.01026 13.299 6Z" fill="#7B83EB"/>
<path opacity="0.1" d="M9.92252 6V12.468C9.92046 12.7646 9.73469 13.0311 9.4512 13.144C9.36094 13.1809 9.26394 13.2 9.16593 13.2H5.3251C5.27136 13.068 5.22175 12.936 5.1804 12.8C5.03567 12.341 4.96183 11.8639 4.96127 11.384V6.768C4.95133 6.35391 5.28988 6.01026 5.71786 6H9.92252Z" fill="black"/>
<path opacity="0.2" d="M9.50909 6V12.868C9.50908 12.9628 9.48939 13.0567 9.4512 13.144C9.33448 13.4183 9.05906 13.598 8.7525 13.6H5.51942C5.44913 13.468 5.38299 13.336 5.3251 13.2C5.26722 13.064 5.22175 12.936 5.1804 12.8C5.03567 12.341 4.96183 11.8639 4.96127 11.384V6.768C4.95133 6.35391 5.28988 6.01026 5.71786 6H9.50909Z" fill="black"/>
<path opacity="0.2" d="M9.50908 6V12.068C9.50593 12.471 9.16903 12.797 8.75249 12.8H5.1804C5.03567 12.341 4.96183 11.8639 4.96127 11.384V6.768C4.95133 6.35391 5.28988 6.01026 5.71786 6H9.50908Z" fill="black"/>
<path opacity="0.2" d="M9.09564 6V12.068C9.09248 12.471 8.75559 12.797 8.33905 12.8H5.1804C5.03567 12.341 4.96183 11.8639 4.96127 11.384V6.768C4.95133 6.35391 5.28988 6.01026 5.71786 6H9.09564Z" fill="black"/>
<path opacity="0.1" d="M9.92243 3.93194V5.19194C9.85214 5.19594 9.78599 5.19994 9.71571 5.19994C9.64542 5.19994 9.57927 5.19595 9.50898 5.19194C9.36943 5.18298 9.23103 5.16156 9.09555 5.12795C8.25834 4.93612 7.56667 4.36806 7.23509 3.59995C7.17803 3.47096 7.13374 3.33702 7.10278 3.19995H9.16583C9.58303 3.20148 9.92084 3.5283 9.92243 3.93194Z" fill="black"/>
<path opacity="0.2" d="M9.50901 4.33209V5.19209C9.36945 5.18313 9.23105 5.16171 9.09557 5.12809C8.25836 4.93627 7.56669 4.36821 7.23511 3.6001H8.75242C9.16961 3.60163 9.50742 3.92846 9.50901 4.33209Z" fill="black"/>
<path opacity="0.2" d="M9.50901 4.33209V5.19209C9.36945 5.18313 9.23105 5.16171 9.09557 5.12809C8.25836 4.93627 7.56669 4.36821 7.23511 3.6001H8.75242C9.16961 3.60163 9.50742 3.92846 9.50901 4.33209Z" fill="black"/>
<path opacity="0.2" d="M9.09557 4.3321V5.12809C8.25836 4.93627 7.56669 4.36821 7.23511 3.6001H8.33898C8.75618 3.60163 9.09398 3.92847 9.09557 4.3321Z" fill="black"/>
<path d="M0.757825 3.6001H8.33777C8.75631 3.6001 9.09559 3.92837 9.09559 4.33329V11.6669C9.09559 12.0718 8.7563 12.4001 8.33777 12.4001H0.757825C0.339287 12.4001 0 12.0718 0 11.6669V4.33329C0 3.92837 0.339294 3.6001 0.757825 3.6001Z" fill="url(#paint0_linear_6068_32321)"/>
<path d="M6.54218 6.3911H5.02693V10.3831H4.06156V6.3911H2.55334V5.6167H6.54218V6.3911Z" fill="white"/>
<defs>
<linearGradient id="paint0_linear_6068_32321" x1="1.58009" y1="3.02718" x2="7.22624" y2="13.1346" gradientUnits="userSpaceOnUse">
<stop stop-color="#5A62C3"/>
<stop offset="0.5" stop-color="#4D55BD"/>
<stop offset="1" stop-color="#3940AB"/>
</linearGradient>
</defs>
</svg>
