<svg width="48" height="49" viewBox="0 0 48 49" fill="none" xmlns="http://www.w3.org/2000/svg">
<g clip-path="url(#clip0_6729_17966)">
<path fill-rule="evenodd" clip-rule="evenodd" d="M20.6858 6.02406C18.5191 7.5636 17.3577 10.2961 17.9522 13.0594C18.1453 13.9567 18.5058 14.7749 18.9939 15.4884C18.0885 17.2224 17.9162 19.217 18.3861 20.9925C19.0712 23.5808 21.1615 25.8498 24.3264 26.4052C27.322 26.931 29.6506 26.6976 32.4277 26.0936C33.3543 25.8921 34.1961 25.512 34.9248 24.9972C35.077 25.1402 35.2303 25.2766 35.3818 25.4116C36.4532 26.3649 37.4503 27.252 37.4503 29.9487C37.4503 36.0384 24.1802 36.8098 19.7966 36.8098C15.413 36.8098 2.14282 36.0384 2.14282 29.9487C2.14282 27.252 3.13981 26.3649 4.21128 25.4116C5.45568 24.3043 6.80054 23.1077 6.80054 18.8829C6.80054 10.6416 11.4791 6.00586 19.7966 6.00586C20.0978 6.00586 20.3942 6.01196 20.6858 6.02406Z" fill="#C0D8C4"/>
<path fill-rule="evenodd" clip-rule="evenodd" d="M40.4215 5.64277C39.3432 5.64239 38.3112 5.77343 36.9984 6.05584C35.6102 6.35454 34.2424 5.47117 33.9437 4.0828C33.645 2.6944 34.5285 1.32674 35.9167 1.02804C38.8238 0.402609 40.8652 0.35975 43.7311 0.757435C46.3605 1.12234 47.6325 4.08013 46.2261 6.24277C44.5738 8.78399 43.15 10.6954 41.4329 12.6228C42.421 12.5555 43.5058 12.3763 44.8821 12.077C46.2696 11.7751 47.6393 12.6554 47.9414 14.0431C48.2431 15.4309 47.363 16.8005 45.9751 17.1024C42.6545 17.8245 40.3454 18.0219 37.3378 17.5081C34.2602 16.9822 33.5653 13.3462 35.4552 11.4555C37.462 9.44756 38.9016 7.77966 40.4215 5.64277ZM19.7966 3.86157C15.2488 3.86157 11.3916 5.13493 8.67131 7.83027C5.94816 10.5285 4.65772 14.3609 4.65772 18.8814C4.65772 20.6431 4.39577 21.6251 4.12557 22.2133C3.86736 22.7754 3.53424 23.1348 3.03291 23.589C2.97144 23.6447 2.90205 23.7059 2.82643 23.7725C2.34322 24.1985 1.60545 24.8489 1.05515 25.7265C0.357861 26.8385 0 28.1854 0 29.9472C0 32.3856 1.37455 34.1543 3.04713 35.3379C4.67712 36.4909 6.77112 37.238 8.81239 37.742C12.9219 38.7561 17.5331 38.9512 19.7966 38.9512C22.0601 38.9512 26.6713 38.7561 30.7809 37.742C32.8222 37.238 34.9162 36.4909 36.5462 35.3379C38.219 34.1543 39.5935 32.3856 39.5935 29.9472C39.5935 28.4707 39.3429 27.2709 38.8317 26.249C38.3242 25.2339 37.6392 24.5627 37.1016 24.0738C36.226 23.2777 34.8706 23.3421 34.0746 24.2177C33.2785 25.0934 33.3429 26.4486 34.2186 27.2448C34.6406 27.6286 34.8511 27.8705 34.9985 28.1658C35.1429 28.4544 35.3078 28.9622 35.3078 29.9472C35.3078 30.5538 35.0236 31.1652 34.0709 31.8392C33.0757 32.5433 31.5782 33.1308 29.754 33.5811C26.1325 34.4749 21.9168 34.6655 19.7966 34.6655C17.6765 34.6655 13.4608 34.4749 9.83935 33.5811C8.01515 33.1308 6.51765 32.5433 5.5225 31.8391C4.56994 31.1652 4.28572 30.5538 4.28572 29.9472C4.28572 28.7947 4.51008 28.284 4.6861 28.0033C4.88465 27.6866 5.11169 27.4829 5.59838 27.0461C5.69194 26.9621 5.79614 26.8686 5.91052 26.765C6.57364 26.1641 7.40493 25.3414 8.02005 24.0023C8.62317 22.6893 8.94343 21.051 8.94343 18.8814C8.94343 15.1606 9.9923 12.5546 11.6878 10.8746C13.3862 9.19179 16.027 8.14727 19.7966 8.14727C20.9801 8.14727 21.9395 7.18789 21.9395 6.00442C21.9395 4.82094 20.9801 3.86157 19.7966 3.86157ZM25.1975 14.1297C25.41 14.0839 25.6108 14.0442 25.8032 14.0103C25.081 14.9108 24.3169 15.7449 23.3655 16.6943C21.6566 18.3998 22.2787 21.6932 25.0679 22.1827C27.3476 22.5828 29.0869 22.4331 31.5175 21.9045C32.9052 21.6026 33.7855 20.233 33.4837 18.8453C33.1818 17.4576 31.8122 16.5773 30.4245 16.8791C30.2868 16.9091 30.1538 16.9372 30.0249 16.9635C30.7491 16.0409 31.4428 15.0537 32.203 13.8823C33.474 11.9238 32.3227 9.24575 29.9425 8.91023C27.8136 8.61013 26.2784 8.6366 24.1159 9.10185C22.7275 9.40055 21.8441 10.7682 22.1428 12.1566C22.4415 13.545 23.8091 14.4284 25.1975 14.1297ZM14.5714 41.1705C13.8627 41.1705 13.1999 41.5209 12.8007 42.1065C12.4016 42.6921 12.3178 43.4372 12.5769 44.0968C13.7525 47.09 16.4935 48.5008 19.7678 48.5008C23.042 48.5008 25.7831 47.09 26.9587 44.0968C27.2177 43.4372 27.1339 42.6921 26.7348 42.1065C26.3357 41.5209 25.6728 41.1705 24.9641 41.1705H14.5714Z" fill="#2E6B38"/>
</g>
<defs>
<clipPath id="clip0_6729_17966">
<rect width="48" height="48" fill="white" transform="translate(0 0.5)"/>
</clipPath>
</defs>
</svg>
