<svg width="18" height="18" viewBox="0 0 18 18" fill="none" xmlns="http://www.w3.org/2000/svg">
<g id="Pabbly Logo Icon SVG 1" clip-path="url(#clip0_5874_11667)">
<path id="Vector" d="M18 8.99978C18 13.9688 13.9705 17.9969 9 17.9969C7.44155 17.9969 5.97563 17.6011 4.69745 16.9042C1.89882 15.3784 0 12.4109 0 8.99978C0 4.03087 4.02944 0.00268555 8.99991 0.00268555C13.9705 0.00268555 18 4.03087 18 8.99978Z" fill="#20B276"/>
<path id="Vector_2" d="M12.5905 11.5602C11.6381 12.5412 10.4821 13.0321 9.12297 13.0321C8.29343 13.0321 7.52273 12.8918 6.80024 12.4842L6.79154 17.7079L6.72308 17.6895L6.6807 17.6786L6.63068 17.6514L6.60709 17.6087L6.58538 17.5606L6.60946 17.5304L4.22595 14.6902L4.22665 7.97623C4.22665 6.57726 4.70284 5.38912 5.65541 4.41159C6.60779 3.434 7.76368 2.94531 9.12297 2.94531C10.4821 2.94531 11.638 3.43574 12.5905 4.41695C13.5429 5.39802 14.0193 6.58866 14.0193 7.98868C14.0193 9.38886 13.5429 10.5792 12.5905 11.5602ZM10.7724 6.28821C10.3201 5.82197 9.77031 5.58896 9.12297 5.58896C8.47538 5.58896 7.92558 5.82197 7.47347 6.28821C7.02122 6.75443 6.79509 7.32114 6.79509 7.98882C6.79509 8.65629 7.02114 9.22301 7.47347 9.68918C7.92558 10.1555 8.47538 10.3887 9.12297 10.3887C9.77031 10.3887 10.3201 10.1555 10.7724 9.68918C11.2246 9.22301 11.4507 8.65629 11.4507 7.98882C11.4507 7.32114 11.2246 6.75436 10.7724 6.28821Z" fill="#147F52"/>
<path id="Vector_3" d="M12.4027 11.3747C11.4502 12.3562 10.2942 12.8471 8.93498 12.8471C8.10543 12.8471 7.32952 12.6432 6.60705 12.2354L6.60629 17.679C6.60629 17.679 6.43046 17.6306 6.20161 17.5567C6.14518 17.5385 6.08819 17.5189 6.02849 17.4979C6.00009 17.4878 5.98625 17.4818 5.95703 17.4734C5.88216 17.4519 5.78725 17.4103 5.71411 17.3819C5.46835 17.2862 5.26921 17.195 5.26441 17.1928C5.25961 17.1905 4.55614 16.855 4.47682 16.8055C4.40577 16.7611 4.34252 16.7264 4.28832 16.6875C4.271 16.6751 4.25791 16.6662 4.24149 16.655C4.11262 16.5664 4.04061 16.5155 4.04061 16.5155L4.03845 7.78977C4.03845 6.39031 4.51467 5.2018 5.46731 4.22405C6.41981 3.24609 7.5757 2.75732 8.93505 2.75732C10.2943 2.75732 11.4502 3.2479 12.4028 4.22941C13.3553 5.21077 13.8317 6.40178 13.8317 7.80215C13.8316 9.20256 13.3552 10.3934 12.4027 11.3747ZM10.5845 6.1011C10.1322 5.63472 9.58244 5.40163 8.93491 5.40163C8.28732 5.40163 7.73748 5.63472 7.28534 6.1011C6.83306 6.56746 6.60699 7.13434 6.60699 7.80215C6.60699 8.46989 6.83306 9.03681 7.28534 9.50307C7.73748 9.96969 8.28732 10.2028 8.93491 10.2028C9.58235 10.2028 10.1322 9.96969 10.5845 9.50307C11.0367 9.03681 11.2629 8.46989 11.2629 7.80215C11.2629 7.13434 11.0367 6.56746 10.5845 6.1011Z" fill="white"/>
</g>
<defs>
<clipPath id="clip0_5874_11667">
<rect width="18" height="18" fill="white"/>
</clipPath>
</defs>
</svg>
