<svg width="56" height="32" viewBox="0 0 56 32" fill="none" xmlns="http://www.w3.org/2000/svg">
<g clip-path="url(#clip0_5874_11664)">
<path d="M33 15.9997C33 24.8336 25.6125 31.9946 16.5 31.9946C13.6428 31.9946 10.9553 31.2909 8.612 30.052C3.48117 27.3396 0 22.0639 0 15.9997C0 7.16609 7.3873 0.00488281 16.4998 0.00488281C25.6125 0.00488281 33 7.16609 33 15.9997Z" fill="#20B276"/>
<path d="M23.0826 20.5515C21.3364 22.2955 19.2171 23.1682 16.7254 23.1682C15.2046 23.1682 13.7917 22.9188 12.4671 22.194L12.4511 31.4807L12.3256 31.4479L12.2479 31.4286L12.1562 31.3802L12.113 31.3044L12.0732 31.2189L12.1173 31.1652L7.74756 26.1159L7.74884 14.1799C7.74884 11.6929 8.62185 9.58063 10.3682 7.8428C12.1143 6.10486 14.2334 5.23608 16.7254 5.23608C19.2171 5.23608 21.3362 6.10795 23.0826 7.85233C24.8286 9.59645 25.702 11.7131 25.702 14.2021C25.702 16.6913 24.8286 18.8075 23.0826 20.5515ZM19.7493 11.179C18.9202 10.3501 17.9122 9.93589 16.7254 9.93589C15.5382 9.93589 14.5302 10.3501 13.7013 11.179C12.8722 12.0079 12.4576 13.0153 12.4576 14.2023C12.4576 15.3889 12.8721 16.3964 13.7013 17.2252C14.5302 18.0543 15.5382 18.4687 16.7254 18.4687C17.9122 18.4687 18.9202 18.0543 19.7493 17.2252C20.5784 16.3964 20.993 15.3889 20.993 14.2023C20.993 13.0153 20.5784 12.0077 19.7493 11.179Z" fill="#147F52"/>
<path d="M22.7383 20.2217C20.992 21.9665 18.8727 22.8392 16.3808 22.8392C14.8599 22.8392 13.4374 22.4767 12.1129 21.7518L12.1115 31.4292C12.1115 31.4292 11.7892 31.3432 11.3696 31.2118C11.2661 31.1794 11.1617 31.1447 11.0522 31.1073C11.0002 31.0893 10.9748 31.0788 10.9212 31.0638C10.7839 31.0256 10.6099 30.9515 10.4759 30.901C10.0253 30.7309 9.6602 30.5689 9.6514 30.5649C9.6426 30.5608 8.35289 29.9644 8.20748 29.8764C8.07723 29.7975 7.96127 29.7357 7.86189 29.6666C7.83014 29.6446 7.80615 29.6288 7.77605 29.6088C7.53979 29.4514 7.40776 29.3609 7.40776 29.3609L7.40381 13.8484C7.40381 11.3605 8.27687 9.2476 10.0234 7.50937C11.7696 5.77078 13.8888 4.90186 16.3809 4.90186C18.8729 4.90186 20.992 5.77399 22.7385 7.51889C24.4847 9.26354 25.3582 11.3809 25.3582 13.8704C25.3579 16.3601 24.4845 18.4771 22.7383 20.2217ZM19.4049 10.8463C18.5757 10.0172 17.5678 9.60284 16.3806 9.60284C15.1934 9.60284 14.1854 10.0172 13.3564 10.8463C12.5272 11.6754 12.1128 12.6832 12.1128 13.8704C12.1128 15.0575 12.5272 16.0654 13.3564 16.8943C14.1854 17.7238 15.1934 18.1383 16.3806 18.1383C17.5676 18.1383 18.5757 17.7238 19.4049 16.8943C20.2338 16.0654 20.6487 15.0575 20.6487 13.8704C20.6487 12.6832 20.2338 11.6754 19.4049 10.8463Z" fill="white"/>
</g>
<defs>
<clipPath id="clip0_5874_11664">
<rect width="33" height="32" fill="white"/>
</clipPath>
</defs>
</svg>
