<svg width="18" height="18" viewBox="0 0 18 18" fill="none" xmlns="http://www.w3.org/2000/svg">
<path fill-rule="evenodd" clip-rule="evenodd" d="M6.59961 0C5.60459 0.000733945 4.79931 0.806605 4.80005 1.79963C4.79931 2.79266 5.60533 3.59853 6.60034 3.59927H8.40064V1.80037C8.40137 0.807339 7.59536 0.00146789 6.59961 0C6.60034 0 6.60034 0 6.59961 0ZM6.59961 4.8H1.8003C0.80528 4.80073 -0.000733404 5.6066 2.0098e-06 6.59963C-0.00146882 7.59266 0.804545 8.39853 1.79956 8.4H6.59961C7.59462 8.39926 8.40064 7.59339 8.3999 6.60037C8.40064 5.6066 7.59462 4.80073 6.59961 4.8Z" fill="#36C5F0"/>
<path fill-rule="evenodd" clip-rule="evenodd" d="M17.9995 6.59963C18.0002 5.6066 17.1942 4.80073 16.1992 4.8C15.2042 4.80073 14.3982 5.6066 14.3989 6.59963V8.4H16.1992C17.1942 8.39926 18.0002 7.59339 17.9995 6.59963ZM13.1995 6.59963V1.79963C13.2002 0.807339 12.3949 0.00146789 11.3999 0C10.4049 0.000733945 9.59888 0.806605 9.59961 1.79963V6.59963C9.59814 7.59266 10.4042 8.39853 11.3992 8.4C12.3942 8.39926 13.2002 7.59339 13.1995 6.59963Z" fill="#2EB67D"/>
<path fill-rule="evenodd" clip-rule="evenodd" d="M11.3999 18.0003C12.3949 17.9996 13.2009 17.1937 13.2002 16.2007C13.2009 15.2077 12.3949 14.4018 11.3999 14.4011H9.59961V16.2007C9.59887 17.193 10.4049 17.9989 11.3999 18.0003ZM11.3999 13.1996H16.2C17.195 13.1989 18.001 12.393 18.0002 11.4C18.0017 10.4069 17.1957 9.60108 16.2007 9.59961H11.4006C10.4056 9.60034 9.59961 10.4062 9.60035 11.3992C9.59961 12.393 10.4049 13.1989 11.3999 13.1996Z" fill="#ECB22E"/>
<path fill-rule="evenodd" clip-rule="evenodd" d="M5.02848e-07 11.3992C-0.000734911 12.3923 0.805279 13.1981 1.80029 13.1989C2.79531 13.1981 3.60132 12.3923 3.60059 11.3992V9.59961H1.80029C0.805279 9.60034 -0.000734911 10.4062 5.02848e-07 11.3992ZM4.80005 11.3992V16.1992C4.79858 17.1923 5.60459 17.9981 6.59961 17.9996C7.59462 17.9989 8.40064 17.193 8.3999 16.2V11.4007C8.40137 10.4077 7.59536 9.60181 6.60034 9.60034C5.60459 9.60034 4.79931 10.4062 4.80005 11.3992Z" fill="#E01E5A"/>
</svg>
