<svg width="18" height="18" viewBox="0 0 18 18" fill="none" xmlns="http://www.w3.org/2000/svg">
<path d="M18 9C18 13.9725 13.9725 18 9 18C4.0275 18 0 13.9725 0 9C0 4.0275 4.0275 0 9 0C13.9725 0 18 4.0275 18 9Z" fill="url(#paint0_linear_7711_4403)"/>
<path d="M7.35039 13.1251C7.05789 13.1251 7.11039 13.0126 7.00539 12.7351L6.15039 9.9151L11.4604 6.6001L12.0829 6.7651L11.5654 8.1751L7.35039 13.1251Z" fill="#C8DAEA"/>
<path d="M7.34961 13.1249C7.57461 13.1249 7.67211 13.0199 7.79961 12.8999C7.99461 12.7124 10.4996 10.2749 10.4996 10.2749L8.96211 9.8999L7.53711 10.7999L7.34961 13.0499V13.1249Z" fill="#A9C9DD"/>
<path d="M7.50044 10.83L11.1304 13.5075C11.5429 13.7325 11.8429 13.62 11.9479 13.125L13.4254 6.16503C13.5754 5.55753 13.1929 5.28753 12.7954 5.46753L4.12544 8.81253C3.53294 9.05253 3.54044 9.38253 4.02044 9.52503L6.24794 10.2225L11.4004 6.97503C11.6404 6.82503 11.8654 6.90753 11.6854 7.07253L7.50044 10.83Z" fill="url(#paint1_linear_7711_4403)"/>
<defs>
<linearGradient id="paint0_linear_7711_4403" x1="11.6378" y1="2.84475" x2="7.13775" y2="13.3446" gradientUnits="userSpaceOnUse">
<stop stop-color="#37AEE2"/>
<stop offset="1" stop-color="#1E96C8"/>
</linearGradient>
<linearGradient id="paint1_linear_7711_4403" x1="9.67477" y1="9.28166" x2="11.5498" y2="12.2817" gradientUnits="userSpaceOnUse">
<stop stop-color="#EFF7FC"/>
<stop offset="1" stop-color="white"/>
</linearGradient>
</defs>
</svg>
