<svg width="68" height="56" viewBox="0 0 68 56" fill="none" xmlns="http://www.w3.org/2000/svg">
<path d="M0 23C0 21.3431 1.34315 20 3 20H17C18.6569 20 20 21.3431 20 23V56H8C3.58172 56 0 52.4183 0 48V23Z" fill="url(#paint0_linear_3326_13232)"/>
<rect x="0.34219" y="20.3422" width="19.3156" height="9.31562" rx="2.65781" fill="url(#paint1_linear_3326_13232)" stroke="url(#paint2_linear_3326_13232)" stroke-width="0.68438"/>
<path d="M24 13C24 11.3431 25.3431 10 27 10H41C42.6569 10 44 11.3431 44 13V56H24V13Z" fill="url(#paint3_linear_3326_13232)"/>
<rect x="24.3422" y="10.3422" width="19.3156" height="9.31562" rx="2.65781" fill="url(#paint4_linear_3326_13232)" stroke="url(#paint5_linear_3326_13232)" stroke-width="0.68438"/>
<path d="M48 3C48 1.34314 49.3431 0 51 0H65C66.6569 0 68 1.34315 68 3V48C68 52.4183 64.4183 56 60 56H48V3Z" fill="url(#paint6_linear_3326_13232)"/>
<rect x="48.3422" y="0.34219" width="19.3156" height="9.31562" rx="2.65781" fill="url(#paint7_linear_3326_13232)" stroke="url(#paint8_linear_3326_13232)" stroke-width="0.68438"/>
<defs>
<linearGradient id="paint0_linear_3326_13232" x1="9.98295" y1="55.5689" x2="9.98295" y2="19.5635" gradientUnits="userSpaceOnUse">
<stop stop-color="white" stop-opacity="0.8"/>
<stop offset="1" stop-color="white" stop-opacity="0.1"/>
</linearGradient>
<linearGradient id="paint1_linear_3326_13232" x1="9.98295" y1="29.8802" x2="9.98295" y2="19.8787" gradientUnits="userSpaceOnUse">
<stop stop-color="white" stop-opacity="0.8"/>
<stop offset="1" stop-color="white" stop-opacity="0.1"/>
</linearGradient>
<linearGradient id="paint2_linear_3326_13232" x1="9.98295" y1="29.8802" x2="9.98295" y2="19.8787" gradientUnits="userSpaceOnUse">
<stop stop-color="white" stop-opacity="0.2"/>
<stop offset="1" stop-color="white" stop-opacity="0.1"/>
</linearGradient>
<linearGradient id="paint3_linear_3326_13232" x1="33.983" y1="55.4491" x2="33.983" y2="9.44219" gradientUnits="userSpaceOnUse">
<stop stop-color="white" stop-opacity="0.8"/>
<stop offset="1" stop-color="white" stop-opacity="0.1"/>
</linearGradient>
<linearGradient id="paint4_linear_3326_13232" x1="33.983" y1="19.8802" x2="33.983" y2="9.87874" gradientUnits="userSpaceOnUse">
<stop stop-color="white" stop-opacity="0.8"/>
<stop offset="1" stop-color="white" stop-opacity="0.1"/>
</linearGradient>
<linearGradient id="paint5_linear_3326_13232" x1="33.983" y1="19.8802" x2="33.983" y2="9.87874" gradientUnits="userSpaceOnUse">
<stop stop-color="white" stop-opacity="0.2"/>
<stop offset="1" stop-color="white" stop-opacity="0.1"/>
</linearGradient>
<linearGradient id="paint6_linear_3326_13232" x1="57.983" y1="55.3294" x2="57.983" y2="-0.679073" gradientUnits="userSpaceOnUse">
<stop stop-color="white" stop-opacity="0.8"/>
<stop offset="1" stop-color="white" stop-opacity="0.1"/>
</linearGradient>
<linearGradient id="paint7_linear_3326_13232" x1="57.983" y1="9.88025" x2="57.983" y2="-0.121263" gradientUnits="userSpaceOnUse">
<stop stop-color="white" stop-opacity="0.8"/>
<stop offset="1" stop-color="white" stop-opacity="0.1"/>
</linearGradient>
<linearGradient id="paint8_linear_3326_13232" x1="57.983" y1="9.88025" x2="57.983" y2="-0.121263" gradientUnits="userSpaceOnUse">
<stop stop-color="white" stop-opacity="0.2"/>
<stop offset="1" stop-color="white" stop-opacity="0.1"/>
</linearGradient>
</defs>
</svg>
