<svg width="68" height="58" viewBox="0 0 68 58" fill="none" xmlns="http://www.w3.org/2000/svg">
<path d="M0.34219 22.3422H67.6578V50C67.6578 54.2293 64.2293 57.6578 60 57.6578H8C3.77071 57.6578 0.34219 54.2293 0.34219 50V22.3422Z" fill="url(#paint0_linear_3326_13208)" stroke="url(#paint1_linear_3326_13208)" stroke-width="0.68438"/>
<rect x="6.5" y="28.5" width="15" height="9" rx="2.5" fill="url(#paint2_linear_3326_13208)" stroke="url(#paint3_linear_3326_13208)"/>
<rect x="6.5" y="42.5" width="15" height="9" rx="2.5" fill="url(#paint4_linear_3326_13208)" stroke="url(#paint5_linear_3326_13208)"/>
<rect x="46.5" y="28.5" width="15" height="9" rx="2.5" fill="url(#paint6_linear_3326_13208)" stroke="url(#paint7_linear_3326_13208)"/>
<rect x="46.5" y="42.5" width="15" height="9" rx="2.5" fill="url(#paint8_linear_3326_13208)" stroke="url(#paint9_linear_3326_13208)"/>
<rect x="26.5" y="28.5" width="15" height="9" rx="2.5" fill="url(#paint10_linear_3326_13208)" stroke="url(#paint11_linear_3326_13208)"/>
<rect x="26.5" y="42.5" width="15" height="9" rx="2.5" fill="url(#paint12_linear_3326_13208)" stroke="url(#paint13_linear_3326_13208)"/>
<mask id="path-8-inside-1_3326_13208" fill="white">
<path fill-rule="evenodd" clip-rule="evenodd" d="M8 5.00391C3.58172 5.00391 0 8.58563 0 13.0039V22.0039H68V13.0039C68 8.58563 64.4183 5.00391 60 5.00391H8ZM17.0026 13.2329C17.0026 15.424 15.2264 17.2002 13.0353 17.2002C10.8442 17.2002 9.06803 15.424 9.06803 13.2329C9.06803 11.0418 10.8442 9.26562 13.0353 9.26562C15.2264 9.26562 17.0026 11.0418 17.0026 13.2329ZM58.9422 13.2329C58.9422 15.424 57.166 17.2002 54.975 17.2002C52.7839 17.2002 51.0077 15.424 51.0077 13.2329C51.0077 11.0418 52.7839 9.26562 54.975 9.26562C57.166 9.26562 58.9422 11.0418 58.9422 13.2329Z"/>
</mask>
<path fill-rule="evenodd" clip-rule="evenodd" d="M8 5.00391C3.58172 5.00391 0 8.58563 0 13.0039V22.0039H68V13.0039C68 8.58563 64.4183 5.00391 60 5.00391H8ZM17.0026 13.2329C17.0026 15.424 15.2264 17.2002 13.0353 17.2002C10.8442 17.2002 9.06803 15.424 9.06803 13.2329C9.06803 11.0418 10.8442 9.26562 13.0353 9.26562C15.2264 9.26562 17.0026 11.0418 17.0026 13.2329ZM58.9422 13.2329C58.9422 15.424 57.166 17.2002 54.975 17.2002C52.7839 17.2002 51.0077 15.424 51.0077 13.2329C51.0077 11.0418 52.7839 9.26562 54.975 9.26562C57.166 9.26562 58.9422 11.0418 58.9422 13.2329Z" fill="url(#paint14_linear_3326_13208)"/>
<path d="M0 22.0039H-0.68438V22.6883H0V22.0039ZM68 22.0039V22.6883H68.6844V22.0039H68ZM0.68438 13.0039C0.68438 8.9636 3.95969 5.68829 8 5.68829V4.31953C3.20375 4.31953 -0.68438 8.20765 -0.68438 13.0039H0.68438ZM0.68438 22.0039V13.0039H-0.68438V22.0039H0.68438ZM68 21.3195H0V22.6883H68V21.3195ZM67.3156 13.0039V22.0039H68.6844V13.0039H67.3156ZM60 5.68829C64.0403 5.68829 67.3156 8.9636 67.3156 13.0039H68.6844C68.6844 8.20766 64.7963 4.31953 60 4.31953V5.68829ZM8 5.68829H60V4.31953H8V5.68829ZM13.0353 17.8845C15.6043 17.8845 17.6869 15.8019 17.6869 13.2329H16.3182C16.3182 15.046 14.8484 16.5158 13.0353 16.5158V17.8845ZM8.38365 13.2329C8.38365 15.8019 10.4663 17.8845 13.0353 17.8845V16.5158C11.2222 16.5158 9.75241 15.046 9.75241 13.2329H8.38365ZM13.0353 8.58124C10.4663 8.58124 8.38365 10.6639 8.38365 13.2329H9.75241C9.75241 11.4198 11.2222 9.95001 13.0353 9.95001V8.58124ZM17.6869 13.2329C17.6869 10.6639 15.6043 8.58124 13.0353 8.58124V9.95001C14.8484 9.95001 16.3182 11.4198 16.3182 13.2329H17.6869ZM54.975 17.8845C57.544 17.8845 59.6266 15.8019 59.6266 13.2329H58.2579C58.2579 15.046 56.7881 16.5158 54.975 16.5158V17.8845ZM50.3233 13.2329C50.3233 15.8019 52.4059 17.8845 54.975 17.8845V16.5158C53.1619 16.5158 51.6921 15.046 51.6921 13.2329H50.3233ZM54.975 8.58124C52.4059 8.58124 50.3233 10.6639 50.3233 13.2329H51.6921C51.6921 11.4198 53.1619 9.95001 54.975 9.95001V8.58124ZM59.6266 13.2329C59.6266 10.6639 57.544 8.58124 54.975 8.58124V9.95001C56.7881 9.95001 58.2579 11.4198 58.2579 13.2329H59.6266Z" fill="url(#paint15_linear_3326_13208)" mask="url(#path-8-inside-1_3326_13208)"/>
<path d="M11.2997 13.0033C11.2997 13.9423 12.061 14.7036 13 14.7036C13.939 14.7036 14.7003 13.9423 14.7003 13.0033H11.2997ZM14.7003 13.0033C14.7003 9.38272 14.2507 6.6878 13.489 4.74709C12.7295 2.81214 11.5848 1.45934 10.1117 0.891296C8.60991 0.312162 7.1186 0.688192 6.05903 1.50082C5.02409 2.29456 4.29974 3.5753 4.29974 5.0037H7.70026C7.70026 4.73169 7.85091 4.41201 8.12847 4.19913C8.3814 4.00516 8.64009 3.96838 8.88826 4.06408C9.16519 4.17088 9.77051 4.58054 10.3235 5.98952C10.8743 7.39274 11.2997 9.6232 11.2997 13.0033H14.7003Z" fill="url(#paint16_linear_3326_13208)"/>
<path d="M53.2997 13.0033C53.2997 13.9423 54.061 14.7036 55 14.7036C55.939 14.7036 56.7003 13.9423 56.7003 13.0033H53.2997ZM56.7003 13.0033C56.7003 9.38272 56.2507 6.6878 55.489 4.74709C54.7295 2.81214 53.5848 1.45934 52.1117 0.891296C50.6099 0.312162 49.1186 0.688192 48.059 1.50082C47.0241 2.29456 46.2997 3.5753 46.2997 5.0037H49.7003C49.7003 4.73169 49.8509 4.41201 50.1285 4.19913C50.3814 4.00516 50.6401 3.96838 50.8883 4.06408C51.1652 4.17088 51.7705 4.58054 52.3235 5.98952C52.8743 7.39274 53.2997 9.6232 53.2997 13.0033H56.7003Z" fill="url(#paint17_linear_3326_13208)"/>
<defs>
<linearGradient id="paint0_linear_3326_13208" x1="33.942" y1="57.5689" x2="33.942" y2="21.5635" gradientUnits="userSpaceOnUse">
<stop stop-color="white" stop-opacity="0.8"/>
<stop offset="1" stop-color="white" stop-opacity="0.1"/>
</linearGradient>
<linearGradient id="paint1_linear_3326_13208" x1="33.942" y1="57.5689" x2="33.942" y2="21.5635" gradientUnits="userSpaceOnUse">
<stop stop-color="white" stop-opacity="0.2"/>
<stop offset="1" stop-color="white" stop-opacity="0.1"/>
</linearGradient>
<linearGradient id="paint2_linear_3326_13208" x1="13.9864" y1="37.8802" x2="13.9864" y2="27.8787" gradientUnits="userSpaceOnUse">
<stop stop-color="white" stop-opacity="0.8"/>
<stop offset="1" stop-color="white" stop-opacity="0.5"/>
</linearGradient>
<linearGradient id="paint3_linear_3326_13208" x1="13.9864" y1="37.8802" x2="13.9864" y2="27.8787" gradientUnits="userSpaceOnUse">
<stop stop-color="white" stop-opacity="0.8"/>
<stop offset="1" stop-color="white" stop-opacity="0.8"/>
</linearGradient>
<linearGradient id="paint4_linear_3326_13208" x1="13.9864" y1="51.8802" x2="13.9864" y2="41.8787" gradientUnits="userSpaceOnUse">
<stop stop-color="white" stop-opacity="0.4"/>
<stop offset="1" stop-color="white" stop-opacity="0.1"/>
</linearGradient>
<linearGradient id="paint5_linear_3326_13208" x1="13.9864" y1="51.8802" x2="13.9864" y2="41.8787" gradientUnits="userSpaceOnUse">
<stop stop-color="white" stop-opacity="0.2"/>
<stop offset="1" stop-color="white" stop-opacity="0.1"/>
</linearGradient>
<linearGradient id="paint6_linear_3326_13208" x1="53.9864" y1="37.8802" x2="53.9864" y2="27.8787" gradientUnits="userSpaceOnUse">
<stop stop-color="white" stop-opacity="0.4"/>
<stop offset="1" stop-color="white" stop-opacity="0.1"/>
</linearGradient>
<linearGradient id="paint7_linear_3326_13208" x1="53.9864" y1="37.8802" x2="53.9864" y2="27.8787" gradientUnits="userSpaceOnUse">
<stop stop-color="white" stop-opacity="0.2"/>
<stop offset="1" stop-color="white" stop-opacity="0.1"/>
</linearGradient>
<linearGradient id="paint8_linear_3326_13208" x1="53.9864" y1="51.8802" x2="53.9864" y2="41.8787" gradientUnits="userSpaceOnUse">
<stop stop-color="white" stop-opacity="0.8"/>
<stop offset="1" stop-color="white" stop-opacity="0.5"/>
</linearGradient>
<linearGradient id="paint9_linear_3326_13208" x1="53.9864" y1="51.8802" x2="53.9864" y2="41.8787" gradientUnits="userSpaceOnUse">
<stop stop-color="white" stop-opacity="0.8"/>
<stop offset="1" stop-color="white" stop-opacity="0.8"/>
</linearGradient>
<linearGradient id="paint10_linear_3326_13208" x1="33.9864" y1="37.8802" x2="33.9864" y2="27.8787" gradientUnits="userSpaceOnUse">
<stop stop-color="white" stop-opacity="0.4"/>
<stop offset="1" stop-color="white" stop-opacity="0.1"/>
</linearGradient>
<linearGradient id="paint11_linear_3326_13208" x1="33.9864" y1="37.8802" x2="33.9864" y2="27.8787" gradientUnits="userSpaceOnUse">
<stop stop-color="white" stop-opacity="0.2"/>
<stop offset="1" stop-color="white" stop-opacity="0.1"/>
</linearGradient>
<linearGradient id="paint12_linear_3326_13208" x1="33.9864" y1="51.8802" x2="33.9864" y2="41.8787" gradientUnits="userSpaceOnUse">
<stop stop-color="white" stop-opacity="0.8"/>
<stop offset="1" stop-color="white" stop-opacity="0.5"/>
</linearGradient>
<linearGradient id="paint13_linear_3326_13208" x1="33.9864" y1="51.8802" x2="33.9864" y2="41.8787" gradientUnits="userSpaceOnUse">
<stop stop-color="white" stop-opacity="0.8"/>
<stop offset="1" stop-color="white" stop-opacity="0.8"/>
</linearGradient>
<linearGradient id="paint14_linear_3326_13208" x1="33.942" y1="21.8003" x2="33.942" y2="4.79776" gradientUnits="userSpaceOnUse">
<stop stop-color="white" stop-opacity="0.4"/>
<stop offset="1" stop-color="white" stop-opacity="0.1"/>
</linearGradient>
<linearGradient id="paint15_linear_3326_13208" x1="33.942" y1="21.8003" x2="33.942" y2="4.79776" gradientUnits="userSpaceOnUse">
<stop stop-color="white" stop-opacity="0.2"/>
<stop offset="1" stop-color="white" stop-opacity="0.1"/>
</linearGradient>
<linearGradient id="paint16_linear_3326_13208" x1="9.10068" y1="13.2788" x2="9.10068" y2="2.0503" gradientUnits="userSpaceOnUse">
<stop stop-color="white"/>
<stop offset="1" stop-color="white" stop-opacity="0.2"/>
</linearGradient>
<linearGradient id="paint17_linear_3326_13208" x1="51.1007" y1="13.2788" x2="51.1007" y2="2.0503" gradientUnits="userSpaceOnUse">
<stop stop-color="white"/>
<stop offset="1" stop-color="white" stop-opacity="0.2"/>
</linearGradient>
</defs>
</svg>
