<svg width="20" height="20" viewBox="0 0 20 20" fill="none" xmlns="http://www.w3.org/2000/svg">
<path d="M10 16.6586C6.33225 16.6586 3.3589 13.6853 3.3589 10.0176C3.3589 6.34983 6.33225 3.37655 10 3.37655C13.6677 3.37655 16.641 6.34983 16.641 10.0176C16.641 13.6853 13.6677 16.6586 10 16.6586ZM10 1C5.01974 1 0.982422 5.03739 0.982422 10.0176C0.982422 14.9978 5.01974 19.0351 10 19.0351C14.9802 19.0351 19.0175 14.9978 19.0175 10.0176C19.0175 5.03739 14.9803 1 10 1Z" fill="#CF272D"/>
<path d="M10.3704 7.77193C10.3704 6.73646 11.2099 5.89697 12.2454 5.89697C13.281 5.89697 14.1204 6.73646 14.1204 7.77193C14.1204 8.80755 13.281 9.64696 12.2454 9.64696C11.2099 9.64696 10.3704 8.80755 10.3704 7.77193ZM10.3704 12.2635C10.3704 11.228 11.2099 10.3885 12.2454 10.3885C13.281 10.3885 14.1204 11.228 14.1204 12.2635C14.1204 13.2991 13.281 14.1385 12.2454 14.1385C11.2099 14.1385 10.3704 13.2991 10.3704 12.2635ZM5.87891 12.2635C5.87891 11.228 6.71846 10.3885 7.75394 10.3885C8.78948 10.3885 9.62897 11.228 9.62897 12.2635C9.62897 13.2991 8.78948 14.1385 7.75394 14.1385C6.71846 14.1385 5.87891 13.2991 5.87891 12.2635ZM5.87891 7.772C5.87891 6.73646 6.71846 5.89704 7.75394 5.89704C8.78948 5.89704 9.62897 6.73646 9.62897 7.772C9.62897 8.80762 8.78948 9.64703 7.75394 9.64703C6.71846 9.64703 5.87891 8.80762 5.87891 7.772Z" fill="#CF272D"/>
</svg>
