<svg width="20" height="20" viewBox="0 0 20 20" fill="none" xmlns="http://www.w3.org/2000/svg">
    <path d="M18.4935 0H15.2422V4.71125H19.9997V1.32845C20.001 1.32845 19.7646 0.128477 18.4935 0Z" fill="#1967D2"/>
    <path d="M15.2422 19.9781V19.9897V19.9999L19.9997 15.2887H19.957L15.2422 19.9781Z" fill="#1967D2"/>
    <path d="M19.9993 15.2886V15.2463L19.957 15.2886H19.9993Z" fill="#FBBC05"/>
    <path d="M19.9997 4.7113H15.2422V15.2464H19.9997V4.7113Z" fill="#FBBC05"/>
    <path d="M19.957 15.2887H15.2422V19.9781L19.957 15.2887Z" fill="#EA4335"/>
    <path d="M15.2422 15.2886H19.957L19.9997 15.2463H15.2422V15.2886Z" fill="#EA4335"/>
    <path d="M15.2305 19.9898H15.242V19.9783L15.2305 19.9898Z" fill="#34A853"/>
    <path d="M4.65039 15.2463V19.9897H15.231L15.2427 15.2463H4.65039Z" fill="#34A853"/>
    <path d="M15.242 15.2887V15.2463L15.2305 19.9897L15.242 19.9781V15.2887Z" fill="#34A853"/>
    <path d="M0 15.2463V18.5443C0.0426274 19.6146 1.20002 19.9897 1.20002 19.9897H4.65026V15.2463H0Z" fill="#188038"/>
    <path d="M4.65026 4.71137H15.2425V0.00012207H1.33437C1.33437 0.00012207 0.0852548 0.128599 0 1.45577V15.2465H4.65026V4.71137Z" fill="#4285F4"/>
    <path d="M8.11648 13.1139C7.87415 13.1139 7.64048 13.0823 7.41546 13.0192C7.19621 12.956 6.99426 12.8614 6.80963 12.7351C6.625 12.6031 6.46056 12.4396 6.31632 12.2445C6.17784 12.0493 6.0711 11.8227 5.99609 11.5644L7.06062 11.1426C7.13562 11.4296 7.26256 11.6476 7.44142 11.7968C7.62028 11.9403 7.8453 12.012 8.11648 12.012C8.23765 12.012 8.35304 11.9948 8.46267 11.9604C8.5723 11.9202 8.6675 11.8657 8.74827 11.7968C8.82905 11.728 8.89252 11.6476 8.93868 11.5558C8.9906 11.4583 9.01657 11.3492 9.01657 11.2287C9.01657 10.9762 8.92137 10.7782 8.73096 10.6348C8.54633 10.4913 8.28958 10.4196 7.9607 10.4196H7.45008V9.39522H7.91743C8.03282 9.39522 8.14533 9.38087 8.25496 9.35218C8.36458 9.32349 8.45978 9.28045 8.54056 9.22306C8.62711 9.15994 8.69346 9.08246 8.73962 8.99065C8.79155 8.89309 8.81751 8.78119 8.81751 8.65494C8.81751 8.45982 8.74827 8.30201 8.6098 8.1815C8.47132 8.05525 8.28381 7.99212 8.04725 7.99212C7.79338 7.99212 7.5972 8.06099 7.45873 8.19871C7.32603 8.3307 7.23371 8.47991 7.18178 8.64633L6.14322 8.22454C6.19515 8.08107 6.27304 7.93474 6.3769 7.78553C6.48075 7.63059 6.61057 7.49286 6.76636 7.37235C6.92791 7.2461 7.11543 7.14568 7.32891 7.07107C7.54239 6.99073 7.78761 6.95056 8.06456 6.95056C8.34727 6.95056 8.60403 6.99073 8.83482 7.07107C9.07138 7.15141 9.27332 7.26332 9.44065 7.40678C9.60797 7.54451 9.73779 7.71093 9.83011 7.90604C9.92242 8.09542 9.96858 8.30201 9.96858 8.52582C9.96858 8.69798 9.9455 8.85292 9.89934 8.99065C9.85895 9.12837 9.80414 9.25175 9.7349 9.36079C9.66567 9.46982 9.58489 9.56451 9.49257 9.64485C9.40603 9.71945 9.3166 9.77971 9.22428 9.82562V9.89448C9.50123 10.0035 9.72913 10.1785 9.908 10.4196C10.0926 10.6606 10.1849 10.9647 10.1849 11.332C10.1849 11.5902 10.1359 11.8284 10.0378 12.0465C9.93973 12.2588 9.79837 12.4453 9.61374 12.606C9.43488 12.7667 9.21851 12.89 8.96464 12.9761C8.71077 13.0679 8.42805 13.1139 8.11648 13.1139Z" fill="#4285F4"/>
    <path d="M12.2517 12.9761V8.41391L11.2045 8.85292L10.7891 7.89744L12.5287 7.08829H13.3855V12.9761H12.2517Z" fill="#4285F4"/>
</svg>
