<svg width="16" height="16" viewBox="0 0 16 16" fill="none" xmlns="http://www.w3.org/2000/svg">
<path d="M13.3327 6.66671C13.3327 10.6667 7.99935 14.6667 7.99935 14.6667C7.99935 14.6667 2.66602 10.6667 2.66602 6.66671C2.66602 5.25222 3.22792 3.89567 4.22811 2.89547C5.22831 1.89528 6.58486 1.33337 7.99935 1.33337C9.41384 1.33337 10.7704 1.89528 11.7706 2.89547C12.7708 3.89567 13.3327 5.25222 13.3327 6.66671Z" stroke="#273F2B" stroke-width="1.5" stroke-linecap="round" stroke-linejoin="round"/>
<path d="M8 8.66663C9.10457 8.66663 10 7.7712 10 6.66663C10 5.56206 9.10457 4.66663 8 4.66663C6.89543 4.66663 6 5.56206 6 6.66663C6 7.7712 6.89543 8.66663 8 8.66663Z" stroke="#273F2B" stroke-width="1.5" stroke-linecap="round" stroke-linejoin="round"/>
</svg>
