<svg width="20" height="20" viewBox="0 0 20 20" fill="none" xmlns="http://www.w3.org/2000/svg">
    <g clip-path="url(#clip0_7362_20409)">
    <path d="M10 19.3749C6.82 19.3749 4.605 19.1728 3.27208 18.9953C2.07958 18.8362 1.16042 17.9312 0.989167 16.7374C0.815417 15.5249 0.625 13.6099 0.625 11.0416C0.625 8.47325 0.815417 6.55825 0.989167 5.34575C1.16 4.15242 2.07958 3.247 3.2725 3.08825C4.60458 2.91034 6.81958 2.70825 10 2.70825C13.18 2.70825 15.395 2.91034 16.7279 3.08825C17.9204 3.247 18.8396 4.15242 19.0108 5.34575C19.1846 6.55825 19.375 8.47325 19.375 11.0416C19.375 13.6099 19.1846 15.5249 19.0108 16.7374C18.84 17.9308 17.9204 18.8362 16.7275 18.9953C15.395 19.1728 13.18 19.3749 10 19.3749Z" fill="#8C958E"/>
    <path d="M13.9586 6.04911C13.7486 6.04911 13.564 6.04328 13.402 6.0337C12.4561 5.97828 11.924 5.19953 11.8945 4.4012C11.8685 3.69435 11.8685 2.98679 11.8945 2.27995C11.9236 1.48161 12.4561 0.702863 13.402 0.647446C13.564 0.637863 13.7486 0.632446 13.9586 0.632446C14.1686 0.632446 14.3532 0.637863 14.5153 0.647446C15.4611 0.702863 15.9932 1.48161 16.0228 2.27995C16.0487 2.98679 16.0487 3.69435 16.0228 4.4012C15.9936 5.19953 15.4611 5.97828 14.5153 6.0337C14.3299 6.04431 14.1443 6.04945 13.9586 6.04911Z" fill="#262C27"/>
    <path d="M6.04069 6.04911C5.83069 6.04911 5.64611 6.04328 5.48403 6.0337C4.53819 5.97828 4.00611 5.19953 3.97653 4.4012C3.95053 3.69435 3.95053 2.98679 3.97653 2.27995C4.00569 1.48161 4.53819 0.702863 5.48403 0.647446C5.64611 0.637863 5.83069 0.632446 6.04069 0.632446C6.25069 0.632446 6.43528 0.637863 6.59736 0.647446C7.54319 0.702863 8.07528 1.48161 8.10486 2.27995C8.1308 2.98679 8.1308 3.69435 8.10486 4.4012C8.07569 5.19953 7.54319 5.97828 6.59736 6.0337C6.412 6.04431 6.22636 6.04945 6.04069 6.04911Z" fill="#262C27"/>
    <path fill-rule="evenodd" clip-rule="evenodd" d="M7.08333 10.4166C7.08333 10.1956 6.99554 9.98361 6.83926 9.82733C6.68298 9.67105 6.47101 9.58325 6.25 9.58325H4.58333C4.36232 9.58325 4.15036 9.67105 3.99408 9.82733C3.8378 9.98361 3.75 10.1956 3.75 10.4166C3.75 10.6376 3.8378 10.8496 3.99408 11.0058C4.15036 11.1621 4.36232 11.2499 4.58333 11.2499H6.25C6.47101 11.2499 6.68298 11.1621 6.83926 11.0058C6.99554 10.8496 7.08333 10.6376 7.08333 10.4166ZM9.16667 9.58325C8.94565 9.58325 8.73369 9.67105 8.57741 9.82733C8.42113 9.98361 8.33333 10.1956 8.33333 10.4166C8.33333 10.6376 8.42113 10.8496 8.57741 11.0058C8.73369 11.1621 8.94565 11.2499 9.16667 11.2499H10.8333C11.0543 11.2499 11.2663 11.1621 11.4226 11.0058C11.5789 10.8496 11.6667 10.6376 11.6667 10.4166C11.6667 10.1956 11.5789 9.98361 11.4226 9.82733C11.2663 9.67105 11.0543 9.58325 10.8333 9.58325H9.16667ZM13.75 9.58325C13.529 9.58325 13.317 9.67105 13.1607 9.82733C13.0045 9.98361 12.9167 10.1956 12.9167 10.4166C12.9167 10.6376 13.0045 10.8496 13.1607 11.0058C13.317 11.1621 13.529 11.2499 13.75 11.2499H15.4167C15.6377 11.2499 15.8496 11.1621 16.0059 11.0058C16.1622 10.8496 16.25 10.6376 16.25 10.4166C16.25 10.1956 16.1622 9.98361 16.0059 9.82733C15.8496 9.67105 15.6377 9.58325 15.4167 9.58325H13.75ZM9.16667 13.7499C8.94565 13.7499 8.73369 13.8377 8.57741 13.994C8.42113 14.1503 8.33333 14.3622 8.33333 14.5833C8.33333 14.8043 8.42113 15.0162 8.57741 15.1725C8.73369 15.3288 8.94565 15.4166 9.16667 15.4166H10.8333C11.0543 15.4166 11.2663 15.3288 11.4226 15.1725C11.5789 15.0162 11.6667 14.8043 11.6667 14.5833C11.6667 14.3622 11.5789 14.1503 11.4226 13.994C11.2663 13.8377 11.0543 13.7499 10.8333 13.7499H9.16667ZM12.9167 14.5833C12.9167 14.3622 13.0045 14.1503 13.1607 13.994C13.317 13.8377 13.529 13.7499 13.75 13.7499H15.4167C15.6377 13.7499 15.8496 13.8377 16.0059 13.994C16.1622 14.1503 16.25 14.3622 16.25 14.5833C16.25 14.8043 16.1622 15.0162 16.0059 15.1725C15.8496 15.3288 15.6377 15.4166 15.4167 15.4166H13.75C13.529 15.4166 13.317 15.3288 13.1607 15.1725C13.0045 15.0162 12.9167 14.8043 12.9167 14.5833ZM6.25 13.7499C6.47101 13.7499 6.68298 13.8377 6.83926 13.994C6.99554 14.1503 7.08333 14.3622 7.08333 14.5833C7.08333 14.8043 6.99554 15.0162 6.83926 15.1725C6.68298 15.3288 6.47101 15.4166 6.25 15.4166H4.58333C4.36232 15.4166 4.15036 15.3288 3.99408 15.1725C3.8378 15.0162 3.75 14.8043 3.75 14.5833C3.75 14.3622 3.8378 14.1503 3.99408 13.994C4.15036 13.8377 4.36232 13.7499 4.58333 13.7499H6.25Z" fill="#262C27"/>
    </g>
    <defs>
    <clipPath id="clip0_7362_20409">
    <rect width="20" height="20" fill="white"/>
    </clipPath>
    </defs>
</svg>