<svg width="20" height="20" viewBox="0 0 20 20" fill="none" xmlns="http://www.w3.org/2000/svg">
    <g clip-path="url(#clip0_7362_20419)">
    <path fill-rule="evenodd" clip-rule="evenodd" d="M10 0.0012207C15.5231 0.0012207 20 4.47872 20 10.0012C20 15.5243 15.5231 20.0012 10 20.0012C4.47688 20.0012 0 15.5243 0 10.0012C0 4.47872 4.47688 0.0012207 10 0.0012207Z" fill="#720E9E"/>
    <path d="M14.5781 7.89502L14.5887 7.89314L14.92 7.52439L14.9038 7.52314L14.9388 7.46814H10.2981L10.4769 8.10314H11.7431L9.61187 10.075C9.17687 9.44064 8.1575 7.98252 7.44625 6.88877H8.76813V6.43877L8.78625 6.30939L8.76813 6.30689V6.25439H3.75V6.88877H5.31937C5.92875 7.39189 8.57062 10.5994 8.66687 10.9056C8.70562 11.1925 8.76062 12.8856 8.64687 13.0131C8.51 13.21 7.08062 13.1038 6.82875 13.1225L6.81938 13.7444C7.27938 13.7581 8.65938 13.7438 9.125 13.7438C10.0425 13.7438 11.6494 13.72 11.8756 13.7381L11.9037 13.1494L10.0569 13.1219C10.0181 12.855 9.97563 11.1706 10.0144 10.9869C10.1888 10.4538 13.0225 8.24752 13.3138 8.16439L13.5881 8.10252H14.4444L14.5781 7.89502ZM13.8856 12.2956L14.6881 12.3569L15.6237 8.92564C15.4675 8.92002 14.0481 8.79314 13.8637 8.75877L13.8856 12.2956ZM13.7469 12.8456L13.7513 13.6838L14.1575 13.7175L14.5963 13.7481L14.725 12.9281L14.2625 12.9069L13.7469 12.8456Z" fill="white"/>
    </g>
    <defs>
    <clipPath id="clip0_7362_20419">
    <rect width="20" height="20" fill="white"/>
    </clipPath>
    </defs>
</svg>